<?xml version="1.0" encoding="UTF-8"?>
<svg id="Layer_1" data-name="Layer 1" xmlns="http://www.w3.org/2000/svg" viewBox="0 0 1140.47 208.07">
  <defs>
    <style>
      .cls-1 {
        fill: #0082c2;
      }
    </style>
  </defs>
  <g>
    <path class="cls-1" d="M228.04,147.57c-32.75,0-59.31-30.26-59.31-67.59S195.29,12.4,228.04,12.4s59.31,30.26,59.31,67.59-26.55,67.59-59.31,67.59M228.02.01C185.3.01,150.67,35.82,150.67,79.99s34.63,79.98,77.35,79.98,77.35-35.81,77.35-79.98S270.74.01,228.02.01"/>
    <path class="cls-1" d="M125.24,123.88c-18.6,22.62-42.56,23.69-47.86,23.69-32.75,0-59.31-30.26-59.31-67.59S44.62,12.4,77.37,12.4c6.07,0,29.57,1.36,47.86,23.6l4.17,5.07.03-27.85-1.3-.66C103.67.27,81.43-.1,77.35.01,34.63.01,0,35.82,0,79.99s34.63,79.98,77.35,79.98c6.25,0,27.62-1,50.76-12.34l1.33-.65-.03-28.18s-4.17,5.08-4.17,5.08Z"/>
    <path class="cls-1" d="M483.94,193.05l-91.62-115.52,48.69-58.24c7.75-9.42,14.26-13.83,14.33-13.87l6.45-4.32-31.59-.02-.51,1.66c-1.52,4.91-5.07,9.68-7.42,12.84,0,0-32.25,43.59-38.17,51.56-6.23-7.93-39.87-51.54-39.87-51.54-2.09-2.77-4.95-6.56-6.97-12.89l-.52-1.64h-34.55l7.49,4.4c.08.05,8.41,5.02,18.47,19.01,13.8,17.59,38.78,49.45,44.36,56.6l-49.74,59.46c-7.75,9.42-14.25,13.84-14.32,13.89l-6.43,4.31h31.61s.48-1.71.48-1.71c1.51-5.36,7.81-13.29,7.93-13.43l38.56-52.15c12.89,16.44,87.66,111.76,87.66,111.76,1.44,1.79,2.35,3.74,2.64,4.88h28.12l-5.95-4.49c-.09-.06-2.15-1.34-9.12-10.54"/>
  </g>
  <g>
    <path class="cls-1" d="M557.14,98.28h-19.84l-4.11,9.33h-5.49l16.9-37.33h5.28l16.96,37.33h-5.6l-4.11-9.33h0ZM555.27,94.01l-8.05-18.29-8.05,18.29h16.11Z"/>
    <path class="cls-1" d="M592.06,74.92v13.01h18.72v4.59h-18.72v15.09h-5.33v-37.33h26.34v4.64s-21.01,0-21.01,0Z"/>
    <path class="cls-1" d="M642.29,90.55v17.06h-4.85v-3.73c-1.71,2.56-4.85,4.05-9.28,4.05-6.4,0-10.45-3.41-10.45-8.32,0-4.53,2.93-8.27,11.36-8.27h8.11v-1.01c0-4.32-2.51-6.83-7.57-6.83-3.36,0-6.77,1.17-8.96,3.04l-2.13-3.84c2.93-2.35,7.15-3.63,11.68-3.63,7.73,0,12.11,3.73,12.11,11.47h0ZM637.17,98.97v-3.95h-7.89c-5.07,0-6.51,1.97-6.51,4.37,0,2.83,2.35,4.59,6.24,4.59s6.88-1.76,8.16-5.01h0Z"/>
    <path class="cls-1" d="M696.58,91.35v16.26h-5.12v-15.68c0-5.55-2.67-8.27-7.31-8.27-5.12,0-8.48,3.25-8.48,9.38v14.56h-5.12v-15.68c0-5.55-2.67-8.27-7.31-8.27-5.12,0-8.48,3.25-8.48,9.38v14.56h-5.12v-28.26h4.91v4.21c2.03-2.88,5.49-4.48,9.76-4.48s7.94,1.71,9.81,5.23c2.13-3.2,6.08-5.23,10.88-5.23,6.88,0,11.57,3.95,11.57,12.26h0Z"/>
    <path class="cls-1" d="M705.1,70.6c0-1.87,1.49-3.36,3.47-3.36s3.47,1.44,3.47,3.25c0,1.92-1.44,3.41-3.47,3.41s-3.47-1.44-3.47-3.31h0ZM706.01,79.35h5.12v28.26h-5.12v-28.26Z"/>
    <path class="cls-1" d="M720.89,68.04h5.12v39.57h-5.12v-39.57Z"/>
    <path class="cls-1" d="M761.84,79.35l-13.71,31.09c-2.51,5.97-5.76,7.84-10.08,7.84-2.72,0-5.49-.91-7.25-2.61l2.19-3.84c1.39,1.33,3.15,2.08,5.07,2.08,2.45,0,4-1.12,5.39-4.37l.91-1.97-12.48-28.21h5.33l9.87,22.61,9.76-22.61h5.01,0Z"/>
    <path class="cls-1" d="M778.37,93.48c0-8.43,6.24-14.4,14.72-14.4s14.67,5.97,14.67,14.4-6.19,14.45-14.67,14.45-14.72-6.03-14.72-14.45ZM802.58,93.48c0-6.03-4.05-9.92-9.49-9.92s-9.55,3.89-9.55,9.92,4.11,9.97,9.55,9.97,9.49-3.95,9.49-9.97Z"/>
    <path class="cls-1" d="M820.6,76.9v2.45h8.21v4.21h-8.11v24.05h-5.12v-24.05h-4.8v-4.21h4.8v-2.51c0-5.49,3.31-9.12,9.33-9.12,2.19,0,4.32.53,5.76,1.65l-1.55,3.89c-1.07-.8-2.45-1.33-3.95-1.33-3.04,0-4.59,1.71-4.59,4.96h0Z"/>
    <path class="cls-1" d="M880.85,97.53c0,6.4-4.85,10.08-14.29,10.08h-17.81v-37.33h16.74c8.59,0,13.39,3.63,13.39,9.65,0,4.05-2.08,6.88-5.01,8.32,4.21,1.17,6.99,4.32,6.99,9.28h0ZM854.08,74.6v11.94h10.93c5.44,0,8.53-2.03,8.53-5.97s-3.09-5.97-8.53-5.97h-10.93ZM875.47,97.11c0-4.32-3.2-6.24-9.12-6.24h-12.26v12.42h12.26c5.92,0,9.12-1.87,9.12-6.19Z"/>
    <path class="cls-1" d="M914.71,79.35v28.26h-4.85v-4.27c-2.08,2.93-5.6,4.59-9.6,4.59-7.31,0-12.16-4-12.16-12.32v-16.26h5.12v15.68c0,5.55,2.77,8.32,7.63,8.32,5.33,0,8.75-3.31,8.75-9.39v-14.61h5.12Z"/>
    <path class="cls-1" d="M920.89,104.63l2.13-4.05c2.4,1.71,6.24,2.93,9.92,2.93,4.75,0,6.72-1.44,6.72-3.84,0-6.34-17.86-.85-17.86-12.1,0-5.07,4.53-8.48,11.79-8.48,3.68,0,7.84.96,10.29,2.56l-2.19,4.05c-2.56-1.65-5.39-2.24-8.16-2.24-4.48,0-6.67,1.65-6.67,3.89,0,6.67,17.92,1.23,17.92,12.21,0,5.12-4.69,8.37-12.21,8.37-4.69,0-9.33-1.44-11.68-3.31h0Z"/>
    <path class="cls-1" d="M951.34,70.6c0-1.87,1.49-3.36,3.47-3.36s3.47,1.44,3.47,3.25c0,1.92-1.44,3.41-3.47,3.41s-3.47-1.44-3.47-3.31h0ZM952.25,79.35h5.12v28.26h-5.12v-28.26Z"/>
    <path class="cls-1" d="M991.82,91.35v16.26h-5.12v-15.68c0-5.55-2.77-8.27-7.63-8.27-5.44,0-8.96,3.25-8.96,9.38v14.56h-5.12v-28.26h4.91v4.27c2.08-2.88,5.71-4.53,10.19-4.53,6.88,0,11.73,3.95,11.73,12.26h0Z"/>
    <path class="cls-1" d="M1026.9,95.19h-22.93c.64,4.96,4.64,8.27,10.24,8.27,3.31,0,6.08-1.12,8.16-3.41l2.83,3.31c-2.56,2.99-6.45,4.59-11.15,4.59-9.12,0-15.2-6.03-15.2-14.45s6.03-14.4,14.19-14.4,13.97,5.87,13.97,14.56c0,.43-.05,1.07-.11,1.55h0ZM1003.97,91.51h18.13c-.53-4.75-4.11-8.11-9.07-8.11s-8.53,3.31-9.07,8.11h0Z"/>
    <path class="cls-1" d="M1030.52,104.63l2.13-4.05c2.4,1.71,6.24,2.93,9.92,2.93,4.75,0,6.72-1.44,6.72-3.84,0-6.34-17.86-.85-17.86-12.1,0-5.07,4.53-8.48,11.79-8.48,3.68,0,7.84.96,10.29,2.56l-2.19,4.05c-2.56-1.65-5.39-2.24-8.16-2.24-4.48,0-6.67,1.65-6.67,3.89,0,6.67,17.92,1.23,17.92,12.21,0,5.12-4.69,8.37-12.21,8.37-4.69,0-9.33-1.44-11.68-3.31h0Z"/>
    <path class="cls-1" d="M1057.24,104.63l2.13-4.05c2.4,1.71,6.24,2.93,9.92,2.93,4.75,0,6.72-1.44,6.72-3.84,0-6.34-17.86-.85-17.86-12.1,0-5.07,4.53-8.48,11.79-8.48,3.68,0,7.84.96,10.29,2.56l-2.19,4.05c-2.56-1.65-5.39-2.24-8.16-2.24-4.48,0-6.67,1.65-6.67,3.89,0,6.67,17.92,1.23,17.92,12.21,0,5.12-4.69,8.37-12.21,8.37-4.69,0-9.33-1.44-11.68-3.31h0Z"/>
    <path class="cls-1" d="M1112.96,95.19h-22.93c.64,4.96,4.64,8.27,10.24,8.27,3.31,0,6.08-1.12,8.16-3.41l2.83,3.31c-2.56,2.99-6.45,4.59-11.15,4.59-9.12,0-15.2-6.03-15.2-14.45s6.03-14.4,14.19-14.4,13.97,5.87,13.97,14.56c0,.43-.05,1.07-.11,1.55h0ZM1090.03,91.51h18.13c-.53-4.75-4.11-8.11-9.07-8.11s-8.53,3.31-9.07,8.11h0Z"/>
    <path class="cls-1" d="M1116.59,104.63l2.13-4.05c2.4,1.71,6.24,2.93,9.92,2.93,4.75,0,6.72-1.44,6.72-3.84,0-6.34-17.86-.85-17.86-12.1,0-5.07,4.53-8.48,11.79-8.48,3.68,0,7.84.96,10.29,2.56l-2.19,4.05c-2.56-1.65-5.39-2.24-8.16-2.24-4.48,0-6.67,1.65-6.67,3.89,0,6.67,17.92,1.23,17.92,12.21,0,5.12-4.69,8.37-12.21,8.37-4.69,0-9.33-1.44-11.68-3.31h0Z"/>
  </g>
</svg>